<?xml version="1.0" standalone="no"?>
<!DOCTYPE svg PUBLIC "-//W3C//DTD SVG 20010904//EN"
 "http://www.w3.org/TR/2001/REC-SVG-20010904/DTD/svg10.dtd">
<svg version="1.0" xmlns="http://www.w3.org/2000/svg"
 width="887.000000pt" height="686.000000pt" viewBox="0 0 887.000000 686.000000"
 preserveAspectRatio="xMidYMid meet">

<g transform="translate(0.000000,686.000000) scale(0.100000,-0.100000)"
fill="#fff" stroke="none">
<path d="M4006 6826 c-73 -77 -105 -314 -72 -521 22 -132 64 -301 87 -346 41
-82 105 -132 186 -145 75 -11 172 42 244 135 l26 33 19 -38 c52 -107 184 -113
264 -12 l33 41 24 -47 c19 -37 34 -52 69 -67 42 -19 48 -19 98 -5 33 10 71 31
100 57 72 64 153 199 140 233 -15 38 -45 12 -126 -107 -78 -112 -133 -146
-190 -116 -28 15 -58 85 -58 137 0 93 -48 114 -75 33 -38 -115 -115 -186 -172
-159 -41 20 -54 53 -51 130 3 56 9 74 35 110 56 77 141 106 220 73 45 -19 72
-19 80 0 7 20 -23 54 -64 71 -124 53 -260 -35 -373 -241 -64 -116 -138 -198
-189 -208 -53 -11 -114 22 -151 79 -16 26 -30 59 -30 74 0 14 21 72 46 130 93
214 120 336 111 497 -9 155 -50 213 -152 213 -41 0 -52 -5 -79 -34z m116 -33
c41 -48 61 -159 48 -256 -21 -148 -105 -417 -129 -417 -13 0 -32 76 -43 173
-13 117 -4 346 16 413 28 91 73 127 108 87z"/>
<path d="M5812 6119 c-100 -50 -161 -147 -170 -271 -6 -84 15 -144 63 -186 47
-42 97 -57 190 -57 77 0 115 12 206 62 3 2 4 -20 2 -49 -5 -71 19 -109 82
-134 45 -17 51 -17 110 -1 35 9 65 17 67 17 2 0 4 -21 4 -47 0 -61 20 -101 64
-131 30 -20 44 -23 92 -19 67 6 78 -2 78 -60 0 -85 53 -156 150 -202 44 -21
74 -27 148 -29 82 -4 93 -6 86 -20 -31 -74 -37 -104 -24 -144 15 -52 56 -93
106 -107 55 -15 164 -14 264 4 124 22 250 30 250 17 0 -17 -68 -59 -140 -87
-96 -37 -179 -86 -198 -117 -16 -27 -16 -29 4 -49 32 -31 87 -39 220 -33 131
7 201 1 230 -21 18 -13 18 -15 -14 -48 -18 -18 -67 -51 -108 -73 -110 -57
-144 -103 -130 -178 9 -47 37 -80 91 -105 25 -12 45 -25 45 -31 0 -5 -9 -27
-21 -49 -37 -72 -5 -142 86 -187 30 -14 55 -30 55 -34 0 -4 -9 -15 -21 -26
-56 -51 -62 -127 -15 -189 48 -63 235 -134 304 -116 66 18 25 50 -107 85 -51
13 -105 33 -120 43 -78 58 -62 118 47 182 38 22 72 47 75 56 9 22 -24 35 -90
35 -65 0 -122 27 -156 71 -17 24 -18 28 -3 56 35 69 214 98 283 47 55 -41 68
-70 68 -147 0 -59 3 -72 17 -75 24 -5 48 37 48 83 0 66 -20 118 -59 155 -59
55 -118 72 -354 96 -59 6 -117 40 -117 70 0 28 61 81 155 134 104 58 134 93
121 143 -18 73 -64 88 -266 86 -179 -1 -170 -2 -170 15 0 8 21 21 46 30 68 23
205 100 235 133 38 41 43 66 18 89 -27 24 -153 31 -289 14 -233 -28 -259 -27
-309 16 -51 43 -44 71 45 164 42 44 100 95 129 115 103 68 131 140 42 106 -13
-5 -53 -32 -89 -59 -86 -65 -177 -97 -278 -97 -58 0 -84 5 -117 23 -23 12 -44
26 -47 31 -4 5 18 16 47 25 87 25 120 70 157 216 24 94 48 146 80 175 33 30
42 52 30 75 -18 34 -49 23 -119 -42 -36 -35 -93 -77 -126 -95 -80 -42 -263
-113 -292 -113 -28 0 -73 41 -73 67 0 10 9 54 20 98 11 44 20 90 20 102 0 28
-13 24 -102 -34 -110 -71 -148 -76 -188 -26 -28 35 -25 60 13 123 43 71 117
115 197 115 63 0 86 -13 130 -73 36 -51 60 -55 60 -11 0 42 -23 78 -73 114
-33 23 -54 30 -104 33 -54 4 -71 0 -129 -27 -36 -17 -98 -51 -138 -75 -118
-74 -180 -98 -250 -98 -68 0 -107 15 -146 57 -22 24 -25 35 -25 103 0 110 44
190 127 233 50 26 84 24 113 -6 30 -29 31 -45 4 -79 -43 -55 1 -88 51 -38 59
59 33 155 -54 196 -48 23 -74 20 -144 -15z m1053 -759 c-21 -84 -62 -145 -104
-155 -51 -11 -96 28 -103 89 -3 28 2 32 107 86 61 32 112 56 114 54 2 -2 -4
-35 -14 -74z"/>
<path d="M3410 5816 c-46 -17 -278 -157 -397 -238 -220 -152 -520 -440 -679
-654 -110 -148 -176 -214 -251 -250 -50 -25 -71 -29 -157 -30 -91 -2 -105 -5
-165 -36 -78 -39 -148 -120 -181 -207 -48 -125 -77 -177 -125 -226 -64 -63
-126 -97 -240 -129 -50 -14 -116 -37 -149 -51 -89 -39 -166 -54 -251 -48 -89
7 -155 -8 -208 -47 -80 -59 -102 -114 -142 -360 -32 -198 -37 -216 -93 -329
-45 -91 -47 -99 -47 -180 l0 -86 54 -85 c73 -114 96 -144 126 -160 14 -7 25
-17 25 -22 0 -11 -78 -10 -120 2 -19 5 -71 15 -116 21 -106 14 -130 3 -224
-99 -70 -76 -70 -76 -70 -134 0 -55 2 -60 43 -100 66 -66 325 -265 372 -287
11 -5 45 -16 75 -25 31 -8 82 -32 115 -52 209 -128 302 -168 760 -326 251 -87
406 -130 617 -173 l137 -28 73 -111 c377 -572 968 -1010 1648 -1221 596 -185
1304 -175 1895 27 315 108 442 176 945 506 232 153 236 156 352 296 56 67 109
125 117 130 9 5 39 32 67 60 68 69 197 172 247 197 32 17 54 20 107 17 90 -5
185 -53 315 -159 134 -109 214 -165 266 -188 62 -27 309 -73 399 -75 101 -1
144 9 186 46 74 65 104 162 124 403 12 136 12 142 -10 200 -17 43 -41 79 -85
125 -34 36 -85 94 -113 129 -66 83 -166 155 -251 181 -59 19 -98 21 -364 24
-354 4 -340 -1 -307 97 35 106 97 358 113 459 38 236 41 261 31 287 -23 67
-54 16 -61 -102 -5 -91 -27 -208 -84 -442 -57 -239 -79 -283 -144 -283 -47 0
-91 27 -180 108 -48 44 -106 91 -130 103 -41 22 -46 22 -113 9 -89 -16 -148
-8 -232 31 -94 45 -151 47 -322 14 -79 -16 -155 -25 -168 -22 -14 3 -52 23
-85 43 -127 77 -156 76 -240 -7 -28 -27 -66 -53 -84 -59 -36 -10 -78 1 -87 23
-2 7 11 107 30 223 37 221 55 346 85 588 12 98 23 151 32 157 8 5 49 9 92 9
89 0 110 8 133 51 36 71 -5 107 -129 116 -97 7 -124 -4 -152 -57 -9 -17 -22
-30 -29 -30 -8 0 -36 18 -62 41 -27 22 -74 50 -104 63 -30 12 -143 81 -250
152 -107 72 -232 152 -278 178 -78 46 -87 48 -190 57 -478 41 -768 95 -923
169 -90 43 -257 90 -320 90 -46 0 -66 19 -74 68 -16 97 -13 95 -147 118 -101
18 -199 12 -400 -22 l-92 -16 -27 30 c-16 17 -41 74 -63 138 -56 169 -110 239
-201 263 -77 20 -231 32 -412 32 -101 0 -183 2 -183 5 0 10 101 154 161 229
215 267 530 531 867 727 46 26 87 48 91 48 14 0 81 62 76 71 -8 12 -22 11 -65
-5z m-710 -1142 c227 -22 270 -51 325 -212 34 -99 33 -116 -2 -107 -16 4 -82
9 -149 10 l-120 3 -250 107 c-137 59 -279 117 -316 129 -37 12 -68 26 -68 31
-1 14 89 44 168 54 77 11 192 7 412 -15z m-790 -94 c0 -42 -373 -480 -466
-546 -97 -69 -199 -106 -311 -112 -64 -3 -93 -1 -93 6 0 17 27 28 140 56 197
48 333 141 392 266 14 30 44 94 67 142 43 90 93 151 139 170 63 25 132 35 132
18z m253 -25 c57 -15 124 -41 240 -94 34 -16 103 -46 152 -67 50 -21 111 -51
136 -66 25 -15 55 -28 65 -28 10 0 45 -9 78 -20 32 -11 102 -27 155 -36 53
-10 102 -22 109 -27 16 -12 7 -44 -21 -75 l-21 -22 22 -22 21 -21 65 33 c65
32 67 33 158 26 51 -4 153 -11 226 -15 73 -5 136 -11 139 -15 17 -16 -75 -116
-203 -222 -175 -144 -253 -248 -257 -342 -2 -72 37 -99 186 -126 48 -9 99 -22
112 -28 30 -14 65 -93 65 -149 0 -69 -33 -120 -148 -230 -59 -56 -117 -118
-129 -138 -28 -44 -30 -102 -7 -198 26 -112 5 -174 -111 -332 -66 -90 -115
-174 -115 -198 0 -24 -40 -32 -215 -43 -93 -5 -224 -15 -290 -20 -548 -44
-1075 -66 -1235 -51 -63 5 -187 17 -275 25 -88 9 -227 20 -310 24 -137 8 -157
12 -230 42 -148 62 -237 123 -270 184 -26 48 -13 55 38 19 61 -44 134 -78 196
-93 75 -18 457 -7 559 15 367 80 526 301 349 483 -90 93 -192 147 -451 236
-395 137 -480 214 -441 398 7 35 18 109 25 164 6 54 16 114 22 132 13 42 136
142 228 186 l65 31 195 1 c214 2 233 6 347 70 152 85 309 239 443 434 83 121
128 169 172 182 40 11 102 8 161 -7z m1541 -297 c38 -17 59 -53 46 -78 -13
-25 -55 -26 -230 -4 -69 8 -174 14 -233 12 -93 -2 -110 0 -118 14 -14 25 3 31
136 49 146 20 364 24 399 7z m385 -223 c14 -4 20 -10 15 -15 -5 -5 -74 -3
-161 5 -208 19 -229 26 -183 58 17 12 38 10 162 -14 79 -16 154 -31 167 -34z
m-209 -45 c46 -5 120 -10 163 -10 98 0 117 -9 117 -58 1 -87 82 -117 177 -66
47 25 52 26 178 21 174 -8 299 -39 414 -106 95 -54 146 -78 330 -152 208 -84
343 -161 410 -233 28 -30 27 -31 -59 -10 -245 58 -690 138 -863 154 -201 19
-458 50 -667 80 -169 24 -647 70 -729 70 -12 0 -19 4 -16 10 3 6 59 54 123
107 64 53 140 118 167 144 52 49 101 70 145 63 14 -2 63 -8 110 -14z m465 -44
c18 -13 17 -15 -15 -35 -51 -31 -110 -26 -110 9 0 35 88 53 125 26z m-3565
-54 c0 -9 -201 -115 -207 -108 -17 16 56 85 112 104 36 12 95 15 95 4z m4336
-71 c101 -10 137 -25 229 -94 33 -24 96 -64 140 -87 158 -84 212 -120 248
-160 43 -46 47 -70 14 -70 -28 0 -58 20 -117 76 -54 51 -168 109 -385 197
-208 85 -305 129 -305 139 0 10 60 10 176 -1z m-1411 -226 c121 -13 252 -26
290 -30 39 -3 133 -15 210 -26 77 -11 268 -36 425 -55 467 -56 630 -82 910
-146 186 -42 183 -40 176 -86 -18 -114 -36 -349 -46 -587 -9 -239 -30 -487
-46 -551 -3 -13 -14 -30 -25 -40 -18 -16 -25 -17 -117 -1 -53 9 -158 24 -232
32 -232 27 -329 44 -368 64 -20 11 -73 50 -117 86 -110 90 -168 117 -264 123
-93 5 -175 -13 -326 -70 l-110 -42 -175 -2 c-196 -1 -186 1 -370 -87 -142 -68
-235 -97 -310 -97 -80 0 -89 13 -57 82 13 29 53 98 89 153 76 117 112 184 127
241 9 33 7 52 -9 110 -11 38 -20 91 -20 117 l0 49 135 132 c150 147 168 177
168 273 0 49 -7 76 -29 120 -38 76 -72 98 -176 113 -93 13 -147 32 -149 52 -3
33 4 65 18 87 15 23 18 23 97 17 44 -3 180 -17 301 -31z m2540 -187 c14 -6 25
-17 25 -24 0 -22 -46 -47 -71 -39 -12 4 -39 7 -61 7 -50 -1 -70 28 -36 52 26
19 106 21 143 4z m-335 -35 l22 -28 -48 -3 c-56 -4 -86 16 -64 42 20 26 66 20
90 -11z m116 -85 c-3 -18 -17 -131 -31 -250 -25 -214 -38 -299 -70 -431 -9
-38 -22 -118 -29 -178 -14 -110 -31 -155 -64 -166 -9 -3 -41 -16 -70 -30 -30
-14 -57 -21 -62 -17 -4 5 -3 50 1 99 5 50 13 189 18 310 5 121 14 258 20 305
6 47 15 141 21 210 8 87 16 130 27 143 13 14 33 17 114 17 54 0 101 4 104 10
14 23 27 9 21 -22z m-5542 -128 c62 -94 178 -159 442 -250 212 -73 349 -138
416 -199 60 -54 78 -87 78 -144 0 -95 -116 -184 -317 -242 -238 -69 -561 -74
-699 -11 -51 23 -134 90 -134 107 0 21 46 108 82 153 l38 49 75 1 c67 1 77 4
101 28 l27 26 -55 59 c-31 32 -78 95 -107 141 -46 75 -51 89 -51 140 1 102 29
182 65 182 7 0 24 -18 39 -40z m-196 -529 c10 -6 3 -28 -30 -97 -24 -49 -51
-108 -60 -132 -26 -67 -60 -68 -105 -2 -37 54 -31 101 20 157 68 74 132 102
175 74z m5991 -275 c15 -8 33 -22 40 -30 17 -20 10 -22 -87 -31 -63 -5 -73 -4
-79 11 -8 22 39 64 73 64 14 0 37 -6 53 -14z m-1673 -58 c27 -15 88 -56 134
-93 83 -66 152 -107 200 -118 44 -11 580 -77 620 -77 61 0 87 18 115 76 19 41
36 60 72 81 90 53 144 64 353 74 107 4 218 10 245 13 28 2 87 -2 133 -10 96
-15 132 -11 186 25 35 23 49 26 130 26 105 0 150 -18 220 -88 81 -82 106 -180
66 -263 -29 -59 -184 -217 -269 -274 -89 -59 -201 -113 -301 -145 -128 -40
-157 -39 -965 31 -159 13 -360 31 -445 39 -85 8 -238 21 -340 30 -102 9 -232
20 -290 25 -111 11 -510 41 -795 61 -111 8 -269 10 -457 5 -279 -6 -287 -6
-298 13 -24 46 35 188 115 275 41 45 46 47 77 39 18 -4 71 -8 118 -8 90 0 121
10 310 98 132 61 204 79 305 77 188 -5 196 -4 342 51 180 68 183 69 283 65 68
-2 95 -8 136 -28z m2646 -67 c23 -11 76 -50 116 -86 40 -36 91 -74 113 -85 71
-37 210 -50 504 -47 231 2 281 -1 345 -16 78 -19 181 -65 187 -83 2 -6 -13
-16 -34 -21 -121 -32 -649 -189 -763 -227 -222 -73 -284 -99 -612 -258 -113
-55 -224 -102 -245 -105 -29 -4 -63 5 -143 35 -58 22 -151 54 -208 72 -57 18
-102 34 -99 36 2 2 48 17 103 32 213 62 313 122 474 282 128 127 160 182 160
277 0 70 -15 114 -56 168 -19 26 -23 36 -13 39 8 2 21 7 29 10 27 10 98 -1
142 -23z m-4272 -196 c0 -2 -18 -32 -40 -67 -52 -80 -73 -153 -68 -231 4 -51
9 -63 31 -79 15 -11 27 -25 27 -32 0 -7 11 -29 24 -49 l24 -35 -21 -5 c-39
-10 -109 -17 -242 -27 -410 -29 -985 82 -1530 297 -160 63 -425 180 -439 194
-17 16 110 10 339 -16 121 -14 263 -28 315 -31 86 -6 670 21 1005 46 72 5 204
14 295 20 91 6 181 12 200 14 67 6 80 6 80 1z m5620 -200 c17 -9 30 -19 30
-23 0 -4 34 -44 75 -90 90 -99 105 -140 105 -283 0 -171 -46 -343 -106 -400
-24 -22 -33 -24 -121 -22 -184 4 -346 35 -451 86 -34 17 -103 66 -153 109
-169 146 -295 217 -403 225 -77 7 -126 -8 -175 -52 -20 -17 -70 -57 -111 -87
-41 -31 -86 -67 -99 -82 -14 -14 -34 -26 -46 -26 -29 0 -188 63 -192 76 -6 19
400 207 662 306 139 53 424 145 595 192 91 25 190 55 220 66 66 23 131 25 170
5z m-4675 -194 c121 -11 274 -25 340 -31 66 -6 190 -17 275 -25 246 -23 488
-44 885 -75 204 -16 458 -37 565 -45 214 -17 342 -45 594 -130 167 -56 211
-74 200 -85 -18 -16 -208 -82 -321 -110 -63 -16 -250 -55 -416 -86 -344 -66
-391 -69 -747 -46 -437 28 -537 40 -695 82 -240 65 -281 79 -486 166 -268 114
-373 155 -519 203 -112 38 -388 109 -545 142 -61 12 -102 36 -88 50 14 14 103
17 423 14 215 -3 385 -10 535 -24z m-603 -155 c209 -51 251 -65 510 -172 388
-159 501 -200 783 -284 97 -29 268 -49 620 -71 419 -26 414 -26 755 26 283 43
607 130 804 217 80 35 107 33 198 -13 31 -16 64 -29 71 -29 8 0 20 -6 26 -14
10 -12 -5 -34 -77 -118 -167 -195 -226 -239 -362 -274 -73 -19 -230 -16 -505
10 -505 46 -956 77 -1120 79 -159 1 -183 -3 -465 -73 -236 -60 -452 -52 -639
21 -85 34 -338 164 -419 215 -109 70 -197 169 -346 388 -100 147 -107 161 -80
153 10 -4 121 -31 246 -61z m-190 -151 c126 -181 213 -283 292 -341 134 -100
469 -260 626 -300 133 -33 342 -20 574 38 313 77 504 77 1306 -2 113 -11 305
-25 428 -32 122 -7 222 -15 222 -18 0 -3 -42 -35 -92 -71 -392 -277 -814 -439
-1343 -516 -168 -24 -620 -24 -790 0 -614 88 -1114 303 -1545 665 -184 154
-427 425 -572 639 -49 71 -50 71 123 46 169 -23 324 -22 484 5 72 13 135 24
140 27 33 13 54 -7 147 -140z"/>
<path d="M4306 3351 c-23 -25 -36 -76 -36 -141 0 -76 -18 -100 -74 -100 -28 0
-52 -7 -67 -19 -22 -18 -24 -27 -24 -105 0 -137 5 -140 347 -156 221 -10 260
-6 271 25 10 24 -4 163 -18 181 -6 9 -33 20 -59 25 -75 14 -77 18 -70 123 8
113 -5 145 -66 170 -59 23 -181 22 -204 -3z m194 -51 c26 -14 32 -41 21 -91
-27 -117 8 -189 93 -189 36 0 58 -38 54 -92 l-3 -43 -85 -3 c-92 -3 -365 13
-392 23 -26 10 -41 59 -31 102 8 36 12 38 62 50 73 16 91 36 97 109 13 148 20
159 106 150 33 -3 67 -10 78 -16z"/>
<path d="M5119 3283 c-19 -22 -20 -268 -1 -300 18 -32 120 -95 163 -100 51 -7
65 18 84 143 23 157 11 178 -132 248 -60 30 -95 33 -114 9z m113 -73 c88 -48
90 -52 80 -160 -6 -57 -15 -96 -23 -101 -18 -11 -79 16 -106 46 -19 21 -22 36
-22 115 0 49 -2 94 -6 100 -7 11 2 30 14 30 4 0 32 -13 63 -30z"/>
<path d="M5093 2693 c-20 -14 -43 -80 -45 -127 -4 -80 39 -124 140 -145 74
-15 87 -14 116 12 21 18 28 37 37 99 13 88 4 115 -50 142 -33 18 -180 31 -198
19z m189 -84 c19 -22 15 -79 -8 -116 -21 -34 -102 -33 -141 1 -24 21 -28 32
-28 75 0 66 11 74 95 66 48 -4 69 -11 82 -26z"/>
<path d="M4282 2674 c-36 -25 -45 -54 -53 -163 -7 -113 -4 -141 16 -141 21 0
35 57 35 142 0 71 2 81 26 105 23 23 31 25 85 21 36 -3 66 -11 76 -20 14 -15
14 -20 -1 -64 -19 -57 -21 -114 -3 -138 22 -30 36 2 48 113 12 114 9 124 -48
148 -45 18 -153 17 -181 -3z"/>
<path d="M7491 5467 c-13 -6 -33 -24 -44 -39 -17 -22 -18 -31 -8 -58 14 -42
38 -59 79 -60 69 0 109 88 62 138 -12 12 -25 22 -30 22 -4 0 -14 2 -22 5 -7 3
-24 -1 -37 -8z"/>
</g>
</svg>
