<?xml version="1.0" standalone="no"?>
<!DOCTYPE svg PUBLIC "-//W3C//DTD SVG 20010904//EN"
 "http://www.w3.org/TR/2001/REC-SVG-20010904/DTD/svg10.dtd">
<svg version="1.0" xmlns="http://www.w3.org/2000/svg"
 width="2892.000000pt" height="887.000000pt" viewBox="0 0 2892.000000 887.000000"
 preserveAspectRatio="xMidYMid meet">

<g transform="translate(0.000000,887.000000) scale(0.100000,-0.100000)"
fill="#000000" stroke="none">
<path d="M2021 8204 c-238 -64 -461 -351 -625 -807 -403 -1115 -526 -3229
-275 -4707 127 -748 330 -1249 625 -1545 181 -181 357 -256 600 -256 186 -1
346 50 526 166 152 99 328 265 457 432 l64 83 32 -79 c49 -123 93 -188 190
-287 76 -77 104 -98 185 -137 140 -69 198 -82 370 -82 132 1 152 3 225 29 207
71 417 235 565 439 30 42 57 76 60 76 3 0 19 -30 35 -67 76 -170 237 -354 370
-424 127 -66 201 -83 360 -83 115 0 154 4 220 23 228 65 495 257 704 508 168
201 360 505 503 794 72 146 82 171 82 220 0 86 -63 181 -137 209 -39 15 -131
14 -170 -3 -59 -24 -92 -71 -195 -277 -242 -484 -499 -816 -749 -967 -172
-104 -368 -97 -481 18 -135 137 -206 357 -236 729 -9 107 -22 206 -30 225 -21
51 -89 111 -141 126 -54 15 -104 8 -163 -22 -71 -37 -100 -86 -122 -214 -50
-276 -147 -500 -294 -675 -128 -153 -297 -239 -442 -226 -84 8 -141 34 -204
93 -102 95 -148 257 -136 484 11 218 57 381 156 554 127 222 300 368 530 448
91 31 102 32 245 32 140 1 155 -1 225 -28 88 -33 129 -56 190 -106 68 -56 108
-73 170 -74 121 0 220 101 220 225 0 121 -154 257 -399 354 -249 99 -488 100
-776 4 -208 -69 -375 -172 -535 -329 -150 -147 -236 -279 -444 -683 -197 -382
-345 -604 -536 -801 -198 -204 -333 -274 -509 -264 -238 14 -431 238 -596 693
-44 121 -155 534 -155 577 0 10 29 72 64 136 100 185 335 658 434 877 419 926
685 1816 777 2600 22 189 31 715 16 910 -21 259 -67 487 -131 653 -89 230
-238 377 -435 427 -74 19 -212 18 -284 -1z m188 -438 c67 -35 126 -132 166
-273 76 -272 92 -845 35 -1286 -90 -705 -339 -1533 -719 -2397 -73 -164 -204
-430 -213 -430 -4 0 -8 19 -8 43 0 23 -5 101 -10 172 -59 797 -10 1907 121
2745 114 728 303 1285 480 1415 38 29 104 33 148 11z"/>
<path d="M18261 5364 c-133 -36 -247 -132 -309 -261 -34 -72 -37 -86 -40 -183
-3 -88 0 -116 18 -169 147 -437 755 -440 911 -5 30 83 30 225 0 308 -86 241
-338 375 -580 310z m197 -351 c33 -21 62 -73 62 -113 0 -93 -107 -158 -190
-115 -70 36 -92 122 -49 191 11 19 21 34 22 34 1 0 20 7 42 14 43 16 76 12
113 -11z"/>
<path d="M15917 4139 c-119 -28 -188 -107 -223 -256 -23 -96 -14 -256 21 -391
l26 -103 -21 -97 c-50 -223 -115 -388 -280 -720 -87 -174 -191 -371 -230 -437
-215 -356 -431 -592 -637 -697 l-86 -43 -111 0 c-104 0 -114 2 -165 30 -123
68 -224 251 -275 495 -9 41 -23 161 -32 265 -8 105 -20 207 -25 228 -14 55
-92 132 -149 147 -81 22 -173 -9 -228 -76 -32 -39 -41 -68 -67 -209 -66 -368
-270 -689 -514 -808 -82 -40 -91 -42 -176 -42 -82 0 -97 3 -157 33 -151 74
-218 222 -218 482 0 265 57 464 194 675 174 267 447 425 737 425 165 0 301
-47 426 -148 72 -58 135 -78 201 -63 151 33 225 210 140 335 -40 59 -145 139
-254 194 -88 44 -248 98 -331 111 -379 59 -828 -112 -1127 -430 -131 -139
-203 -252 -354 -554 -115 -231 -295 -494 -476 -699 -80 -89 -253 -238 -362
-311 -124 -82 -331 -179 -449 -211 -134 -35 -374 -45 -486 -20 -206 46 -366
179 -470 391 -274 562 -50 1395 415 1537 219 66 435 -68 412 -256 -7 -53 -21
-87 -80 -189 -49 -83 -36 -184 32 -250 133 -130 307 -68 412 146 51 104 70
178 77 297 6 111 -9 186 -61 295 -91 191 -243 319 -456 387 -65 20 -95 23
-230 23 -149 -1 -159 -2 -250 -33 -160 -56 -286 -138 -412 -270 -207 -217
-342 -507 -400 -857 -21 -133 -16 -474 11 -619 105 -582 451 -956 961 -1042
137 -22 409 -15 553 16 431 92 853 363 1189 764 l24 29 28 -79 c119 -340 377
-537 721 -551 147 -7 241 14 380 80 160 77 343 237 459 400 26 37 49 67 51 67
1 0 19 -33 38 -74 96 -203 272 -385 436 -452 100 -40 212 -57 335 -51 133 7
200 24 323 82 412 194 779 647 1139 1405 61 129 119 256 129 283 16 44 35 63
35 35 0 -6 52 -110 116 -231 131 -245 195 -394 218 -509 50 -244 -31 -457
-208 -543 -71 -34 -172 -43 -247 -22 -57 17 -153 74 -204 122 -113 107 -283
75 -356 -67 -44 -86 -17 -174 94 -307 116 -141 275 -245 476 -315 195 -68 277
-80 536 -80 217 0 237 1 349 28 451 106 856 399 1181 855 l38 53 24 -103 c29
-134 54 -202 114 -319 116 -222 301 -380 529 -452 65 -20 95 -23 230 -23 171
0 214 9 349 71 359 166 755 617 1106 1260 48 87 98 170 111 185 13 14 49 83
80 155 91 212 188 403 253 499 70 104 99 140 107 133 13 -13 25 -267 20 -398
-7 -160 -50 -653 -97 -1115 -18 -178 -29 -325 -25 -361 15 -175 113 -284 281
-315 102 -19 225 18 310 93 61 52 118 144 220 348 331 663 639 1160 863 1392
86 90 142 130 195 142 23 6 34 1 62 -27 19 -19 38 -52 45 -78 16 -58 7 -369
-16 -544 -22 -165 -25 -512 -5 -640 71 -470 333 -711 750 -692 197 8 370 81
574 241 89 69 278 259 342 344 33 44 41 50 47 35 82 -208 132 -287 244 -392
55 -51 102 -84 168 -116 136 -67 195 -80 366 -80 132 1 152 3 225 29 207 71
417 235 565 439 30 42 57 76 60 76 3 0 19 -30 35 -67 76 -170 237 -354 370
-424 127 -66 201 -83 360 -83 115 0 154 4 220 23 228 65 495 257 704 508 168
201 360 505 503 794 72 146 82 171 82 220 0 86 -63 181 -137 209 -39 15 -131
14 -170 -3 -59 -24 -92 -71 -195 -277 -242 -484 -499 -816 -749 -967 -172
-104 -368 -97 -481 18 -135 137 -206 357 -236 729 -9 107 -22 206 -30 225 -30
73 -123 136 -198 136 -77 0 -185 -75 -207 -143 -6 -18 -17 -74 -26 -124 -42
-248 -146 -483 -289 -654 -128 -153 -297 -239 -442 -226 -84 8 -141 34 -204
93 -102 95 -148 257 -136 484 11 218 57 381 156 554 127 222 300 368 530 448
91 31 102 32 245 32 140 1 155 -1 225 -28 88 -33 129 -56 190 -106 68 -56 108
-73 170 -74 121 0 220 101 220 225 0 121 -154 257 -399 354 -249 99 -488 100
-776 4 -336 -112 -607 -340 -795 -668 -28 -50 -56 -93 -61 -97 -6 -3 -40 -69
-78 -147 -247 -517 -561 -921 -816 -1047 -123 -62 -256 -76 -334 -35 -74 38
-130 139 -153 278 -18 110 -14 400 11 725 29 384 18 497 -70 680 -88 182 -231
272 -437 272 -109 0 -156 -12 -279 -71 -86 -41 -117 -63 -196 -139 -51 -49
-130 -135 -174 -192 -200 -255 -491 -720 -702 -1121 -40 -76 -74 -137 -76
-135 -1 2 8 120 21 263 48 554 54 636 64 808 21 353 -31 581 -165 725 -77 84
-151 116 -266 117 -78 0 -91 -3 -160 -37 -183 -90 -360 -323 -545 -716 -41
-86 -84 -175 -95 -197 -12 -22 -54 -101 -94 -175 -203 -382 -366 -633 -551
-849 -139 -163 -269 -271 -402 -334 -62 -30 -74 -32 -172 -31 -85 0 -116 4
-163 23 -83 33 -165 112 -215 209 -91 176 -107 290 -99 711 6 298 13 413 57
940 12 140 19 274 15 297 -22 148 -194 227 -322 148 -72 -45 -100 -98 -117
-224 -20 -139 -54 -511 -62 -678 l-7 -134 -67 -136 c-178 -364 -358 -631 -566
-835 -241 -237 -493 -365 -751 -384 l-92 -6 54 56 c148 157 226 368 226 612 0
230 -46 357 -332 925 -98 195 -203 412 -233 483 l-55 127 24 123 c44 223 29
381 -48 493 -56 81 -167 125 -260 103z"/>
</g>
</svg>
