<?xml version="1.0" standalone="no"?>
<!DOCTYPE svg PUBLIC "-//W3C//DTD SVG 20010904//EN"
 "http://www.w3.org/TR/2001/REC-SVG-20010904/DTD/svg10.dtd">
<svg version="1.0" xmlns="http://www.w3.org/2000/svg"
 width="170" height="" viewBox="0 0 1325.000000 225.000000"
 preserveAspectRatio="xMidYMid meet">

<g transform="translate(0.000000,225.000000) scale(0.100000,-0.100000)"
fill="#fff" stroke="none">
<path d="M454 2225 c-123 -39 -220 -151 -307 -355 -13 -30 -32 -88 -67 -205
-5 -16 -18 -86 -29 -155 -28 -165 -30 -585 -5 -725 60 -336 178 -537 373 -637
91 -47 269 -60 396 -29 111 28 277 127 390 233 28 26 31 27 44 10 7 -9 20 -32
28 -51 20 -46 110 -134 163 -160 109 -52 246 -47 354 13 71 40 155 111 175
149 23 42 47 40 71 -5 47 -91 122 -158 210 -191 59 -22 176 -22 243 0 178 56
384 279 531 573 71 142 71 184 0 231 -62 40 -119 11 -168 -88 -75 -153 -124
-232 -214 -344 -112 -142 -233 -205 -324 -170 -85 32 -150 186 -162 383 -5 94
-19 127 -62 146 -69 32 -153 -13 -154 -82 0 -45 -28 -134 -68 -216 -116 -237
-331 -295 -413 -111 -26 60 -26 202 0 286 57 182 171 300 326 340 31 8 70 15
88 15 52 0 136 -27 173 -55 80 -61 128 -64 179 -9 18 20 25 38 25 69 0 67 -62
121 -210 182 -66 27 -252 24 -337 -5 -247 -86 -399 -268 -467 -559 -10 -41
-23 -70 -43 -90 -16 -15 -45 -49 -65 -74 -86 -107 -186 -192 -303 -255 -67
-36 -74 -38 -161 -38 -86 0 -93 2 -150 37 -65 39 -118 103 -171 206 -47 93
-45 121 19 195 29 34 55 63 58 66 9 9 93 120 142 189 26 36 72 109 103 161 31
52 60 102 65 110 53 88 126 276 156 400 23 94 26 301 5 375 -37 134 -100 212
-194 239 -65 19 -185 19 -243 1z m178 -152 c11 -10 29 -35 39 -55 36 -70 35
-321 -2 -437 -35 -109 -107 -276 -156 -359 -24 -40 -43 -75 -43 -77 0 -6 -118
-179 -165 -243 -35 -47 -41 -51 -52 -36 -54 74 -29 558 43 810 8 28 14 56 14
63 0 7 6 27 14 44 7 18 23 59 36 92 39 101 106 194 155 216 30 13 94 3 117
-18z"/>
<path d="M8537 2205 c-69 -24 -127 -100 -127 -165 0 -73 73 -172 141 -190 60
-16 98 -2 160 60 43 43 58 65 63 96 13 74 -36 152 -118 190 -59 27 -67 28
-119 9z"/>
<path d="M7333 1568 c-40 -45 -53 -84 -53 -165 0 -43 6 -98 14 -122 11 -37 11
-53 -1 -95 -25 -93 -46 -150 -90 -244 -23 -51 -43 -99 -43 -105 0 -33 -109
-219 -192 -329 -100 -133 -195 -198 -287 -198 -70 0 -109 25 -147 92 -40 74
-53 124 -67 264 -14 136 -27 166 -82 184 -67 22 -123 -15 -136 -90 -34 -194
-135 -358 -254 -415 -61 -29 -89 -31 -136 -11 -90 38 -125 135 -108 304 25
261 267 476 483 430 57 -12 85 -24 149 -68 51 -34 64 -36 112 -16 36 15 65 60
65 98 -1 43 -51 100 -120 134 -123 62 -145 68 -248 67 -268 -1 -481 -159 -635
-470 -112 -225 -297 -425 -476 -515 -97 -48 -156 -62 -261 -62 -101 0 -148 16
-210 71 -106 96 -144 191 -145 368 0 177 39 287 136 386 42 43 68 61 111 74
53 17 57 17 102 0 49 -19 86 -64 86 -104 0 -12 -13 -48 -30 -79 -26 -51 -28
-62 -19 -94 12 -47 51 -78 96 -78 95 0 173 137 160 280 -18 197 -199 325 -411
291 -108 -18 -173 -55 -268 -156 -59 -62 -129 -201 -157 -312 -26 -102 -29
-289 -6 -376 8 -32 15 -66 15 -75 0 -34 90 -198 132 -242 65 -67 91 -86 165
-122 67 -33 70 -33 231 -36 186 -4 216 2 367 74 106 50 198 118 296 215 66 66
89 77 89 42 0 -25 68 -129 107 -164 21 -17 62 -44 93 -58 48 -22 68 -26 155
-26 86 0 107 3 150 25 73 36 156 102 196 154 19 25 41 46 51 46 9 0 25 -17 37
-43 31 -65 108 -140 176 -172 51 -24 73 -29 145 -29 127 -1 238 49 351 159 32
30 64 55 71 55 7 0 23 -19 36 -42 54 -101 162 -178 311 -222 39 -12 95 -16
205 -16 155 0 199 8 303 56 17 7 34 14 38 14 4 0 44 24 88 54 98 65 195 157
262 249 27 37 52 67 57 67 4 0 10 -12 14 -28 49 -213 152 -340 315 -391 52
-16 162 -13 222 6 68 21 178 94 247 163 88 88 227 279 295 405 14 28 36 68 48
90 13 22 33 65 46 95 42 99 112 234 136 265 l24 29 10 -28 c17 -44 8 -283 -18
-471 -6 -38 -15 -135 -21 -215 -14 -173 -5 -216 50 -261 50 -41 112 -48 174
-19 65 29 83 52 166 215 39 77 87 167 106 200 19 33 39 69 44 80 6 11 19 34
30 50 11 17 23 37 27 45 38 80 200 282 244 304 32 16 49 12 71 -19 11 -15 10
-143 -4 -300 -20 -248 9 -396 96 -492 73 -80 117 -98 246 -98 103 1 107 2 175
39 90 49 114 68 202 155 39 39 76 71 81 71 6 0 15 -14 21 -31 17 -49 79 -127
128 -160 55 -38 151 -69 216 -69 121 0 283 96 369 219 20 29 28 24 73 -44 47
-70 95 -116 159 -152 48 -26 58 -28 161 -27 104 0 114 2 174 33 73 37 159 101
212 158 131 140 319 453 319 531 0 56 -34 93 -94 99 -65 8 -84 -9 -143 -124
-126 -245 -254 -406 -373 -469 -50 -26 -140 -25 -177 2 -67 50 -117 169 -128
304 -14 175 -37 220 -116 220 -59 0 -93 -35 -109 -112 -19 -93 -49 -174 -87
-241 -137 -232 -367 -240 -405 -12 -13 77 1 222 26 270 9 17 16 34 16 39 0 4
21 40 46 78 82 123 202 192 334 193 83 0 138 -18 201 -67 74 -57 162 -29 176
55 12 78 -39 134 -173 189 -172 71 -370 42 -543 -79 -120 -84 -172 -154 -289
-388 -69 -137 -146 -248 -236 -340 -96 -97 -144 -125 -218 -125 -29 0 -58 4
-63 8 -60 42 -84 167 -66 350 6 66 11 169 11 228 0 144 -18 200 -87 270 -47
48 -56 52 -112 59 -119 14 -190 -14 -287 -110 -79 -78 -190 -236 -302 -430
-29 -49 -57 -97 -62 -105 -6 -8 -15 -27 -21 -43 -32 -81 -38 31 -13 249 10 85
15 186 12 259 -4 111 -6 125 -37 186 -45 93 -77 114 -167 114 -65 0 -74 -3
-116 -35 -25 -19 -69 -66 -98 -105 -45 -60 -76 -118 -199 -375 -12 -25 -26
-52 -31 -60 -5 -8 -37 -62 -71 -120 -91 -154 -173 -254 -270 -331 -58 -47 -90
-59 -150 -59 -64 0 -118 27 -153 79 -44 63 -58 116 -63 246 -6 128 10 464 28
607 13 100 9 124 -25 161 -36 39 -104 38 -145 0 -28 -26 -31 -38 -46 -143 -8
-63 -15 -147 -15 -188 0 -52 -6 -86 -21 -120 -125 -285 -266 -480 -419 -581
-67 -44 -97 -58 -176 -81 -72 -21 -93 -15 -67 21 26 35 42 62 49 79 3 8 11 29
19 46 32 74 28 221 -10 324 -13 36 -141 303 -243 507 -15 30 -15 39 0 116 17
89 13 139 -17 197 -23 45 -53 60 -115 60 -46 0 -60 -4 -77 -22z m194 -795 l68
-138 0 -95 c0 -100 -10 -129 -60 -172 -43 -38 -154 -46 -188 -15 -35 33 -82
59 -113 64 -20 3 -38 11 -40 18 -3 7 13 39 35 73 46 68 151 269 151 288 0 13
36 96 46 107 20 19 38 -4 101 -130z"/>
</g>
</svg>
